# xmcd CD database file
#
# Track frame offsets:
#	150
#	13768
#	28893
#	48618
#	60490
#	77741
#	93742
#	109787
#	126721
#	137232
#	158815
#	175398
#	214945
#	238178
#	256543
#	270575
#	289641
#
# Disc length: 4047 seconds
#
# Revision: 0
# Processed by: cddbd v1.5.2PL0 Copyright (c) Steve Scherf et al.
# Submitted via: CDex 1.51
#
DISCID=fd0fcd11
DTITLE=Various Artist - Smooth Jazz
DYEAR=2009
DGENRE=Jazz
TTITLE0=Etta James - At Last
TTITLE1=Chet Baker - Easy Living
TTITLE2=Melody Gardot - Worrisome Heart
TTITLE3=Peter Grant - September Song
TTITLE4=Beth Rowley - Nobody's Fault But Mine
TTITLE5=Ella Fitzgerald - Ev'ry Time We Say Goodbye
TTITLE6=Mel Torme - A sleeping Bee
TTITLE7=Billie Holiday - Lady Sings the Blues
TTITLE8=Astrid Gilberto - Fly Me To The Moon
TTITLE9=Wes Montgomery - Bumpin' on Sunset
TTITLE10=Roy Ayres - Mystic Voyage
TTITLE11=Oliver Nelson - Stolen Moments
TTITLE12=Milt Jackson - Enchanted Lady
TTITLE13=Terry Callier - What Colour is Love
TTITLE14=Count Basie - Softly, With Feeling
TTITLE15=Bill Evans - Times Remembered
TTITLE16=Johnny Hartman - Stairway to the Stars
EXTD=YEAR: 2009
EXTT0=
EXTT1=
EXTT2=
EXTT3=
EXTT4=
EXTT5=
EXTT6=
EXTT7=
EXTT8=
EXTT9=
EXTT10=
EXTT11=
EXTT12=
EXTT13=
EXTT14=
EXTT15=
EXTT16=
PLAYORDER=
